<svg width="137" height="137" viewBox="0 0 137 137" fill="none" xmlns="http://www.w3.org/2000/svg">
<g clip-path="url(#clip0_725_41)">
<mask id="mask0_725_41" style="mask-type:luminance" maskUnits="userSpaceOnUse" x="0" y="0" width="137" height="137">
<path d="M136.999 0.000244141H0V137H136.999V0.000244141Z" fill="white"/>
</mask>
<g mask="url(#mask0_725_41)">
<path d="M45.6664 137C33.5549 137 21.9395 132.188 13.3754 123.624C4.81127 115.06 0 103.445 0 91.3331H91.3329V137H45.6664ZM91.3329 137V91.3331L136.999 137H91.3329ZM91.3329 91.3331V45.6667V0.000244141C103.444 0.000244141 115.06 4.81152 123.624 13.3756C132.188 21.9398 136.999 33.5552 136.999 45.6667V91.3331H91.3329ZM0 91.3331L0 45.6667C0 33.5552 4.81127 21.9398 13.3754 13.3756C21.9395 4.81152 33.5549 0.000244141 45.6664 0.000244141L91.3329 0.000244141V45.6667H45.6664V91.3331H0Z" fill="white"/>
</g>
<mask id="mask1_725_41" style="mask-type:luminance" maskUnits="userSpaceOnUse" x="0" y="0" width="137" height="137">
<path d="M0.000682281 137L137 137L137 0.00043814L0.000670304 0.000450117L0.000682281 137Z" fill="white"/>
</mask>
<g mask="url(#mask1_725_41)">
<path d="M91.3335 0.000442132C103.445 0.000441073 115.06 4.81171 123.625 13.3758C132.189 21.9399 137 33.5554 137 45.6669L45.6671 45.6669L45.6671 0.000446124L91.3335 0.000442132ZM45.6671 0.000446124L45.6671 45.6669L0.000670304 0.000450117L45.6671 0.000446124ZM45.6671 45.6669L45.6671 91.3333L45.6671 137C33.5556 137 21.9402 132.188 13.3761 123.624C4.81195 115.06 0.000679347 103.445 0.000678288 91.3333L0.000674296 45.6669L45.6671 45.6669ZM137 45.6669L137 91.3333C137 103.445 132.189 115.06 123.625 123.624C115.06 132.188 103.445 137 91.3336 137L45.6671 137L45.6671 91.3333L91.3336 91.3333L91.3336 45.6669L137 45.6669Z" fill="white"/>
</g>
</g>
<defs>
<clipPath id="clip0_725_41">
<rect width="137" height="137" fill="white"/>
</clipPath>
</defs>
</svg>
